<svg width="29" height="25" viewBox="0 0 29 25" fill="none" xmlns="http://www.w3.org/2000/svg">
<path d="M12.5642 17.0232H1.39171L1.2287 17.0331C0.87607 17.0758 0.552768 17.254 0.324846 17.5313C0.0969238 17.8086 -0.0184147 18.164 0.00239644 18.5249C0.0232076 18.8859 0.178598 19.2251 0.436817 19.4733C0.695036 19.7216 1.0366 19.86 1.39171 19.8604H12.7801C12.5648 18.9317 12.492 17.9746 12.5642 17.0232ZM26.4702 8.5116H1.39171C1.0366 8.5112 0.695036 8.37275 0.436817 8.12454C0.178598 7.87633 0.0232076 7.53709 0.00239644 7.17614C-0.0184147 6.81519 0.0969238 6.45977 0.324846 6.1825C0.552768 5.90523 0.87607 5.72704 1.2287 5.68433L1.39171 5.6744H26.4702C26.8253 5.6748 27.1669 5.81325 27.4251 6.06147C27.6833 6.30968 27.8387 6.64892 27.8595 7.00987C27.8803 7.37082 27.765 7.72624 27.5371 8.00351C27.3091 8.28078 26.9858 8.45897 26.6332 8.50167L26.4702 8.5116ZM1.39171 14.186H13.2315C13.6634 13.1334 14.2832 12.1714 15.0595 11.3488H1.39171L1.2287 11.3587C0.87607 11.4014 0.552768 11.5796 0.324846 11.8569C0.0969238 12.1342 -0.0184147 12.4896 0.00239644 12.8505C0.0232076 13.2115 0.178598 13.5507 0.436817 13.7989C0.695036 14.0472 1.0366 14.1856 1.39171 14.186ZM26.4702 0H1.39171L1.2287 0.00993016C0.87607 0.0526352 0.552768 0.230827 0.324846 0.508097C0.0969238 0.785367 -0.0184147 1.14079 0.00239644 1.50174C0.0232076 1.86269 0.178598 2.20193 0.436817 2.45014C0.695036 2.69835 1.0366 2.8368 1.39171 2.8372H26.4702L26.6332 2.82727C26.9858 2.78457 27.3091 2.60637 27.5371 2.3291C27.765 2.05183 27.8803 1.69641 27.8595 1.33546C27.8387 0.974512 27.6833 0.635274 27.4251 0.387063C27.1669 0.138851 26.8253 0.000401049 26.4702 0ZM17.1048 12.7319L16.8289 11.7588C17.4429 11.2145 18.141 10.7774 18.8951 10.465L19.5903 11.2084C19.8506 11.4871 20.1639 11.7091 20.5111 11.8608C20.8582 12.0125 21.2321 12.0907 21.6098 12.0907C21.9876 12.0907 22.3615 12.0125 22.7086 11.8608C23.0558 11.7091 23.3691 11.4871 23.6294 11.2084L24.3162 10.4735C25.072 10.7895 25.7708 11.2316 26.3838 11.7815L26.1247 12.6752C26.0176 13.0442 25.9854 13.4315 26.03 13.8136C26.0746 14.1957 26.195 14.5645 26.384 14.8977C26.5729 15.2309 26.8265 15.5215 27.1292 15.7518C27.4319 15.9821 27.7775 16.1473 28.1449 16.2373L28.8958 16.4217C29.0319 17.2708 29.0347 18.1365 28.9042 18.9866L28.0906 19.1908C27.7267 19.2827 27.3849 19.4484 27.0854 19.6779C26.786 19.9075 26.5351 20.1962 26.3478 20.5268C26.1605 20.8573 26.0406 21.223 25.9953 21.6019C25.95 21.9807 25.9803 22.365 26.0843 22.7317L26.3587 23.7048C25.7456 24.2506 25.0473 24.6884 24.2926 25L23.5987 24.2552C23.3384 23.9762 23.0251 23.7541 22.6778 23.6023C22.3305 23.4504 21.9565 23.3722 21.5785 23.3722C21.2005 23.3722 20.8265 23.4504 20.4792 23.6023C20.1319 23.7541 19.8186 23.9762 19.5583 24.2552L18.8714 24.9901C18.1158 24.6744 17.4171 24.2328 16.8038 23.6835L17.0644 22.7884C17.1712 22.4195 17.2032 22.0323 17.1586 21.6504C17.1139 21.2685 16.9934 20.8998 16.8045 20.5668C16.6155 20.2338 16.362 19.9433 16.0594 19.7131C15.7568 19.4829 15.4114 19.3178 15.0442 19.2277L14.2918 19.0433C14.1554 18.1942 14.1526 17.3285 14.2834 16.4785L15.0971 16.2742C15.4612 16.1825 15.8033 16.0169 16.1031 15.7873C16.4028 15.5577 16.6539 15.2689 16.8414 14.9381C17.0288 14.6074 17.1488 14.2415 17.1941 13.8624C17.2393 13.4833 17.209 13.0988 17.1048 12.7319ZM21.5938 19.8604C22.7084 19.8604 23.614 18.9071 23.614 17.7325C23.614 16.5565 22.7084 15.6046 21.5938 15.6046C20.4792 15.6046 19.5736 16.5565 19.5736 17.7325C19.5736 18.9071 20.4792 19.8604 21.5938 19.8604Z" fill="#29BC49"/>
</svg>
