<svg width="26" height="26" viewBox="0 0 26 26" fill="none" xmlns="http://www.w3.org/2000/svg">
<path d="M6.5 13C6.5 13.715 7.085 14.3 7.8 14.3H18.2C18.915 14.3 19.5 13.715 19.5 13C19.5 12.285 18.915 11.7 18.2 11.7H7.8C7.085 11.7 6.5 12.285 6.5 13ZM13 0C5.824 0 0 5.824 0 13C0 20.176 5.824 26 13 26C20.176 26 26 20.176 26 13C26 5.824 20.176 0 13 0ZM13 23.4C7.267 23.4 2.6 18.733 2.6 13C2.6 7.267 7.267 2.6 13 2.6C18.733 2.6 23.4 7.267 23.4 13C23.4 18.733 18.733 23.4 13 23.4Z" fill="#C42121"/>
</svg>
