<svg width="21" height="21" viewBox="0 0 21 21" fill="none" xmlns="http://www.w3.org/2000/svg">
<path fill-rule="evenodd" clip-rule="evenodd" d="M20.7201 1.63138C20.8088 1.54264 20.8792 1.43729 20.9273 1.32135C20.9753 1.20541 21 1.08114 21 0.955641C21 0.830145 20.9753 0.705877 20.9273 0.589933C20.8792 0.47399 20.8088 0.36864 20.7201 0.279901C20.6314 0.191161 20.526 0.120769 20.4101 0.072744C20.2941 0.0247185 20.1699 0 20.0444 0C19.9189 0 19.7946 0.0247185 19.6786 0.072744C19.5627 0.120769 19.4574 0.191161 19.3686 0.279901L10.5 9.15043L1.63138 0.279901C1.54264 0.191161 1.43729 0.120769 1.32135 0.072744C1.20541 0.0247185 1.08114 9.35023e-10 0.955641 0C0.830145 -9.35023e-10 0.705877 0.0247185 0.589933 0.072744C0.47399 0.120769 0.36864 0.191161 0.279901 0.279901C0.191161 0.36864 0.120769 0.47399 0.072744 0.589933C0.0247185 0.705877 -9.35023e-10 0.830145 0 0.955641C9.35023e-10 1.08114 0.0247185 1.20541 0.072744 1.32135C0.120769 1.43729 0.191161 1.54264 0.279901 1.63138L9.15043 10.5L0.279901 19.3686C0.100683 19.5478 0 19.7909 0 20.0444C0 20.2978 0.100683 20.5409 0.279901 20.7201C0.459118 20.8993 0.70219 21 0.955641 21C1.20909 21 1.45216 20.8993 1.63138 20.7201L10.5 11.8496L19.3686 20.7201C19.5478 20.8993 19.7909 21 20.0444 21C20.2978 21 20.5409 20.8993 20.7201 20.7201C20.8993 20.5409 21 20.2978 21 20.0444C21 19.7909 20.8993 19.5478 20.7201 19.3686L11.8496 10.5L20.7201 1.63138Z" fill="black"/>
</svg>
